<svg width="48" height="54" viewBox="0 0 48 54" fill="none" xmlns="http://www.w3.org/2000/svg">
<rect y="3" width="48" height="48" rx="16" fill="#02E494"/>
<path d="M27.12 40L21.864 30.46H20.388V40H14.232V14.728H24.564C26.556 14.728 28.248 15.076 29.64 15.772C31.056 16.468 32.112 17.428 32.808 18.652C33.504 19.852 33.852 21.196 33.852 22.684C33.852 24.364 33.372 25.864 32.412 27.184C31.476 28.504 30.084 29.44 28.236 29.992L34.068 40H27.12ZM20.388 26.104H24.204C25.332 26.104 26.172 25.828 26.724 25.276C27.3 24.724 27.588 23.944 27.588 22.936C27.588 21.976 27.3 21.22 26.724 20.668C26.172 20.116 25.332 19.84 24.204 19.84H20.388V26.104Z" fill="white"/>
</svg>
